<svg width="179" height="188" viewBox="0 0 179 188" fill="none" xmlns="http://www.w3.org/2000/svg">
<path d="M157.198 57.3715C157.543 65.9801 155.662 71.0746 151.078 80.3201C145.696 90.3027 141.7 96.0988 134.632 104.034C103.269 140.369 94.5065 141.739 61.5765 154.521C59.2907 155.421 49.3395 158.345 44.7498 158.345C38.8216 158.198 34.5949 156.877 28.6857 153.756C22.2784 147.919 20.6234 142.431 25.6237 123.54C22.0149 128.803 20.193 132.627 16.064 140.369C11.3387 154.465 9.31875 161.991 11.8568 171.732C19.0941 186.361 29.28 188.133 57.754 180.529C77.3366 171.826 87.9105 166.163 105.181 152.991C126.458 135.649 138.136 125.074 157.198 100.209C163.65 89.6793 167.083 83.6146 171.732 71.5232C176.105 61.9673 177.268 56.3267 175.939 45.5147C174.573 36.4426 171.733 32.2791 157.198 29.0682C143.609 28.6792 134.424 31.4532 116.273 39.7776C101.607 46.7389 95.6859 51.2763 87.5872 60.0489C100.717 53.3552 108.109 49.3261 120.863 45.8972C131.887 43.1746 137.846 42.1468 146.489 44.7498C152.894 47.4353 154.996 50.4452 157.198 57.3715Z" fill="url(#paint0_linear_1624_951)"/>
<path fill-rule="evenodd" clip-rule="evenodd" d="M74.8835 23.3311L71.5232 7.64954C71.5232 7.64954 60.4314 19.8888 58.519 26.7734C56.6066 33.658 56.0622 44.4339 60.0489 51.2519C60.0489 51.2519 50.1044 54.6942 45.5147 62.7262C40.925 70.7582 44.7498 78.0253 44.7498 78.0253C42.312 82.5553 36.3417 84.8336 34.4229 84.9099C32.5041 84.9861 31.1917 81.8335 29.4507 81.85C26.43 80.8942 26.9305 83.649 26.3909 82.9975C25.8512 82.346 20.888 83.6991 22.4045 86.4527C19.1653 87.2022 18.9622 88.1132 18.9622 89.4996C18.9622 90.886 19.4326 90.7328 18.9622 90.8533C6.53211 94.0367 3.12874 93.9827 0 92.3702C0 92.3702 0.325281 98.8847 2.29411 104.416C4.17377 108.887 7.56598 112.868 11.0918 112.448C12.2973 107.667 14.299 104.926 15.2968 103.651C16.2946 102.376 19.3701 98.8914 20.6538 98.2966C17.6629 104.123 19.6423 111.08 20.6538 113.213C25.7236 122.746 35.474 124.836 54.3117 123.54C57.7053 141.465 59.5573 150.989 61.5765 154.521C94.5065 141.739 103.269 140.369 134.632 104.034C133.731 101.553 132.816 100.456 130.425 99.0615C130.425 99.0615 131.57 97.1491 131.952 94.4718C132.335 91.7944 130.805 89.1171 131.19 89.4996C131.574 89.8821 138.699 85.8013 139.984 84.9099C141.27 84.0184 147.982 80.2086 151.078 80.3201C150.206 79.0604 148.64 77.7205 145.945 75.4695L145.391 75.0069L145.341 74.9655L146.489 71.9056C147.272 68.172 146.518 66.3705 143.811 63.4912C140.25 60.6409 137.317 59.7658 131.19 58.9014C126.998 62.6343 124.551 65.5632 120.098 71.5232C118.747 69.3624 117.525 68.3818 114.743 66.9334C111.437 64.9634 108.591 64.8912 103.269 65.0211C98.6423 65.5854 96.0527 66.3056 91.412 68.4634C89.1983 74.2159 87.3507 77.3133 82.9975 82.615C77.4972 88.6646 73.6961 91.2318 65.786 94.4718C57.1327 97.8879 52.5386 98.2347 44.7498 96.3842C44.0659 95.6 42.0724 94.0893 42.0724 94.0893C42.0724 94.0893 39.9057 92.9025 38.2477 92.5594C38.6386 91.9268 39.0278 92.6059 39.0126 89.4996C38.9119 88.7355 38.6138 88.3191 37.8652 87.5872C39.5712 86.6877 40.5218 86.2248 42.0724 86.4398V88.7346C42.3512 90.9611 43.0249 92.0711 45.5147 93.7068C54.6027 94.6744 59.706 93.8768 68.8458 89.1171C79.454 82.8674 83.9919 78.3694 88.3522 67.6984C88.8802 66.4986 88.8427 65.359 88.3522 62.7262C87.08 59.6196 86.0204 58.6691 83.38 58.519C83.537 57.7777 83.4199 57.0334 82.9975 55.0767C103.41 46.468 97.9141 5.73715 100.591 0C88.5926 4.06067 82.997 9.71103 74.8835 23.3311ZM110.151 112.066C106.434 112.055 105.484 111.367 106.326 108.623H105.179C104.543 110.309 104.599 111.069 105.561 112.066C107.075 113.696 108.089 114.315 110.916 113.596C113.915 110.943 115.308 109.442 116.653 106.711C113.004 103.501 110.386 102.265 105.561 100.209C102.841 101.076 101.639 101.884 99.8242 103.651C98.4162 107.158 97.9118 110.918 97.9118 111.301C97.9118 111.55 100.748 114.202 103.729 116.989C105.33 118.486 106.972 120.022 108.239 121.245C113.906 120.281 116.224 119.259 118.948 116.655C116.635 118.095 114.443 118.498 108.239 118.185C104.294 116.846 102.554 115.531 101.354 110.918C100.59 105.564 101.32 103.45 106.326 102.504C110.418 103.717 112.262 104.671 114.358 107.094C113.518 109.851 112.544 110.89 110.151 112.066Z" fill="url(#paint1_linear_1624_951)"/>
<path d="M179.001 90.6484C165.168 115.036 154.908 127.288 134.633 148.02C116.265 165.973 104.219 174.039 81.8516 187.415H179.001V90.6484Z" fill="url(#paint2_linear_1624_951)"/>
<defs>
<linearGradient id="paint0_linear_1624_951" x1="0" y1="95.9401" x2="128.678" y2="95.9401" gradientUnits="userSpaceOnUse">
<stop stop-color="#0629E8"/>
<stop offset="1" stop-color="#5902CE"/>
</linearGradient>
<linearGradient id="paint1_linear_1624_951" x1="0" y1="95.9401" x2="128.678" y2="95.9401" gradientUnits="userSpaceOnUse">
<stop stop-color="#0629E8"/>
<stop offset="1" stop-color="#5902CE"/>
</linearGradient>
<linearGradient id="paint2_linear_1624_951" x1="81.8516" y1="140.846" x2="152.696" y2="140.846" gradientUnits="userSpaceOnUse">
<stop stop-color="#0629E8"/>
<stop offset="1" stop-color="#5902CE"/>
</linearGradient>
</defs>
</svg>
